<?xml version="1.0" encoding="UTF-8"?>
<!DOCTYPE svg PUBLIC "-//W3C//DTD SVG 1.1//EN" "http://www.w3.org/Graphics/SVG/1.1/DTD/svg11.dtd">
<svg xmlns="http://www.w3.org/2000/svg" version="1.1" width="762px" height="647px" style="shape-rendering:geometricPrecision; text-rendering:geometricPrecision; image-rendering:optimizeQuality; fill-rule:evenodd; clip-rule:evenodd" xmlns:xlink="http://www.w3.org/1999/xlink">
<g><path style="opacity:0.995" fill="#719d5e" d="M 404.5,-0.5 C 405.167,-0.5 405.833,-0.5 406.5,-0.5C 408.167,2.83333 409.833,6.16667 411.5,9.5C 500.071,168.971 588.405,328.637 676.5,488.5C 671.804,486.14 666.804,485.14 661.5,485.5C 651.883,487.041 642.216,487.541 632.5,487C 625.353,485.232 622.353,480.899 623.5,474C 633.79,475.154 644.123,475.82 654.5,476C 658.047,475.263 660.88,473.43 663,470.5C 660.712,466.47 658.712,462.137 657,457.5C 651.729,453.883 645.895,452.716 639.5,454C 635.642,455.273 631.642,456.273 627.5,457C 621.147,460.843 615.147,465.177 609.5,470C 603.781,472.763 597.781,474.596 591.5,475.5C 590.29,480.232 587.623,484.066 583.5,487C 576.672,491.915 569.672,496.581 562.5,501C 559.937,502.079 557.271,502.579 554.5,502.5C 554.281,501.325 554.614,500.325 555.5,499.5C 565.398,492.774 574.564,485.108 583,476.5C 583.584,469.875 580.751,467.708 574.5,470C 571.833,472.667 569.167,475.333 566.5,478C 557.391,482.432 549.391,488.432 542.5,496C 537.524,497.081 532.524,498.081 527.5,499C 522.524,503.487 517.191,507.487 511.5,511C 502.276,514.279 493.609,518.612 485.5,524C 474.424,527.417 463.091,529.417 451.5,530C 442.824,533.007 434.157,536.007 425.5,539C 418.083,539.78 410.75,539.28 403.5,537.5C 377.949,543.591 352.282,544.091 326.5,539C 311.5,538.333 296.5,538.333 281.5,539C 279.744,539.202 278.078,539.702 276.5,540.5C 280.661,543.544 285.328,545.377 290.5,546C 302.28,546.434 313.947,547.768 325.5,550C 332.679,553.183 336.846,558.683 338,566.5C 341.759,569.409 344.593,568.743 346.5,564.5C 345.941,560.94 343.941,558.607 340.5,557.5C 337.152,552.903 338.319,550.236 344,549.5C 352.6,550.379 359.433,554.212 364.5,561C 368.473,564.407 372.306,564.24 376,560.5C 378.039,549.946 383.539,547.78 392.5,554C 396.079,561.537 401.913,564.703 410,563.5C 410.667,562.5 410.667,561.5 410,560.5C 407.307,558.427 404.807,556.26 402.5,554C 403.487,551.679 405.154,550.013 407.5,549C 426.968,547.64 445.802,543.473 464,536.5C 468.245,537.021 471.912,538.687 475,541.5C 475.865,543.888 475.032,545.388 472.5,546C 468.5,546.333 464.5,546.667 460.5,547C 458.253,548.995 457.253,551.495 457.5,554.5C 464.082,554.716 470.082,552.883 475.5,549C 479.442,548.007 483.442,547.34 487.5,547C 488.574,546.261 489.241,545.261 489.5,544C 487.316,540.639 485.316,537.139 483.5,533.5C 484.921,528.923 487.921,527.423 492.5,529C 513.533,534.707 534.866,536.04 556.5,533C 564.131,531.348 571.131,528.348 577.5,524C 579.414,522.587 580.747,520.753 581.5,518.5C 578.061,513.194 577.895,507.861 581,502.5C 587.941,497.283 595.108,492.45 602.5,488C 605.257,487.416 607.923,487.75 610.5,489C 624.427,497.38 638.927,504.547 654,510.5C 664.157,509.385 666.657,504.552 661.5,496C 661.613,494.72 662.28,493.887 663.5,493.5C 670.137,497.12 671.971,502.454 669,509.5C 659.401,520.702 647.734,523.702 634,518.5C 629.657,517.079 625.491,515.246 621.5,513C 616.167,508.333 610.833,503.667 605.5,499C 599.909,498.085 594.909,499.419 590.5,503C 588.923,506.482 589.923,509.148 593.5,511C 597.968,513.381 602.635,515.381 607.5,517C 611.202,519.531 612.035,522.698 610,526.5C 605.625,528.188 601.958,530.855 599,534.5C 597.654,537.87 595.821,540.87 593.5,543.5C 587.866,539.599 581.699,536.933 575,535.5C 571.263,535.975 567.763,537.142 564.5,539C 562.725,542.394 563.392,545.06 566.5,547C 573.185,547.403 579.518,549.069 585.5,552C 590.709,555.209 590.709,558.209 585.5,561C 571.138,564.206 556.804,567.539 542.5,571C 528.017,571.935 513.684,573.935 499.5,577C 475.662,583.201 451.662,588.701 427.5,593.5C 423.755,593.071 420.755,591.404 418.5,588.5C 414.349,590.495 410.015,591.995 405.5,593C 388.833,593.333 372.167,593.667 355.5,594C 351.5,594.5 347.5,595 343.5,595.5C 327.898,593.209 312.232,592.876 296.5,594.5C 267.183,591.707 237.849,589.541 208.5,588C 204.385,586.777 200.718,584.777 197.5,582C 191.587,579.274 185.587,578.94 179.5,581C 175.576,584.182 175.576,587.182 179.5,590C 186.876,590.253 194.209,590.919 201.5,592C 209.657,594.886 217.99,597.053 226.5,598.5C 234.153,597.425 241.82,596.925 249.5,597C 254.519,599.673 259.852,601.34 265.5,602C 303.12,604.865 340.786,605.865 378.5,605C 415.216,601.769 451.883,598.102 488.5,594C 508.665,588.875 528.999,584.542 549.5,581C 559.579,579.682 568.913,581.682 577.5,587C 578.767,588.796 578.767,590.629 577.5,592.5C 575.507,594.499 573.173,595.999 570.5,597C 562.821,598.252 555.154,599.585 547.5,601C 541.417,603.412 540.084,607.412 543.5,613C 548.869,613.162 554.202,612.662 559.5,611.5C 565.501,611.594 568.501,614.761 568.5,621C 568.458,622.967 567.958,624.801 567,626.5C 563.04,629.372 558.874,631.872 554.5,634C 565.052,639.713 574.552,638.213 583,629.5C 584.582,627.376 584.749,625.21 583.5,623C 578.447,620.902 574.28,617.735 571,613.5C 570.333,612.167 570.333,610.833 571,609.5C 578.752,604.604 587.252,602.604 596.5,603.5C 607.624,602.758 617.958,605.258 627.5,611C 631.325,613.232 631.325,615.232 627.5,617C 622.215,618.026 616.882,618.693 611.5,619C 605.333,619.501 600.166,622.001 596,626.5C 594.967,629.217 595.8,631.051 598.5,632C 606.956,632.881 615.29,632.214 623.5,630C 627.906,628.591 630.573,625.591 631.5,621C 635.572,620.342 639.572,620.675 643.5,622C 649.421,624.529 655.421,626.863 661.5,629C 661.466,636.624 665.132,639.29 672.5,637C 679.293,631.875 685.793,626.375 692,620.5C 692.939,613.748 690.106,609.248 683.5,607C 679.207,605.798 675.707,606.965 673,610.5C 670.73,615.644 669.063,620.978 668,626.5C 667.586,626.957 667.086,627.291 666.5,627.5C 665.227,623.526 664.06,619.526 663,615.5C 656.824,612.743 650.657,609.91 644.5,607C 641.316,604.563 640.316,601.563 641.5,598C 649.726,599.405 657.893,601.238 666,603.5C 670.793,603.125 675.46,602.125 680,600.5C 686.516,603.135 690.516,601.135 692,594.5C 693.543,592.622 695.376,591.122 697.5,590C 706.181,590.667 714.847,590.501 723.5,589.5C 723.664,586.813 723.497,584.146 723,581.5C 722.097,580.299 720.931,579.465 719.5,579C 712.167,578.333 704.833,578.333 697.5,579C 689.178,580.564 680.845,582.064 672.5,583.5C 666.193,581.37 660.193,578.537 654.5,575C 651.167,574 647.833,573 644.5,572C 640.454,570.529 639.621,568.029 642,564.5C 643.419,563.54 644.919,562.707 646.5,562C 656.167,561.333 665.833,561.333 675.5,562C 683.956,563.594 691.623,566.927 698.5,572C 703.395,574.394 707.895,573.894 712,570.5C 712.667,569.167 712.667,567.833 712,566.5C 709.866,564.516 707.366,563.182 704.5,562.5C 702.73,561.18 702.397,559.68 703.5,558C 707.058,557.854 710.391,557.021 713.5,555.5C 720.433,567.701 727.1,580.034 733.5,592.5C 731.278,592.178 729.444,592.845 728,594.5C 727.883,599.902 725.383,603.736 720.5,606C 714.902,606.6 709.402,606.1 704,604.5C 700.8,604.147 698.133,605.147 696,607.5C 696.894,610.795 698.394,613.961 700.5,617C 705.167,617.333 709.833,617.667 714.5,618C 716.077,621.482 715.077,624.148 711.5,626C 706.471,626.953 701.804,628.787 697.5,631.5C 694.896,634.99 695.896,637.324 700.5,638.5C 716.155,638.916 731.821,638.416 747.5,637C 753.727,633.522 754.06,629.522 748.5,625C 745.167,624.667 741.833,624.333 738.5,624C 735.654,623.121 734.987,621.454 736.5,619C 740.964,618.829 743.63,616.663 744.5,612.5C 750.419,622.002 756.086,631.669 761.5,641.5C 761.5,642.5 761.5,643.5 761.5,644.5C 759.973,644.427 758.973,645.094 758.5,646.5C 505.5,646.5 252.5,646.5 -0.5,646.5C -0.5,644.833 -0.5,643.167 -0.5,641.5C 43.9169,570.998 88.5836,500.664 133.5,430.5C 224.083,287.002 314.417,143.335 404.5,-0.5 Z"/></g>
<g><path style="opacity:1" fill="#030402" d="M 411.5,9.5 C 408.837,15.2104 409.003,20.8771 412,26.5C 419.567,33.6283 424.567,42.295 427,52.5C 429.95,57.1185 433.284,61.4518 437,65.5C 439.61,71.0526 441.943,76.7192 444,82.5C 447.333,88.5 450.667,94.5 454,100.5C 455.318,103.406 455.652,106.406 455,109.5C 453.829,110.893 452.329,111.727 450.5,112C 447.167,112.167 443.833,112.333 440.5,112.5C 426.47,111.496 412.47,110.163 398.5,108.5C 382.821,110.057 367.488,113.224 352.5,118C 346.853,119.953 344.019,123.786 344,129.5C 346.343,133.424 349.843,135.424 354.5,135.5C 364.255,134.145 373.922,132.311 383.5,130C 388.961,129.081 394.461,128.581 400,128.5C 414.838,129.642 429.672,130.475 444.5,131C 450.598,129.655 453.431,125.821 453,119.5C 456.324,116.042 460.157,115.209 464.5,117C 469,122.332 468,126.332 461.5,129C 466.263,131.798 470.763,134.964 475,138.5C 476.422,141.03 476.755,143.697 476,146.5C 458.91,148.528 442.077,147.028 425.5,142C 412.809,141.309 400.142,141.642 387.5,143C 384.215,143.759 381.215,145.092 378.5,147C 372.739,147.691 367.073,147.191 361.5,145.5C 354.209,146.662 346.876,147.495 339.5,148C 333.92,149.189 328.92,151.522 324.5,155C 320.5,159 320.5,163 324.5,167C 328.904,169.413 333.57,170.913 338.5,171.5C 344.128,170.116 349.795,169.283 355.5,169C 360.396,177.047 358.063,181.881 348.5,183.5C 344.861,182.381 341.861,180.214 339.5,177C 338.5,176.833 337.5,176.667 336.5,176.5C 328.213,180.239 319.546,182.739 310.5,184C 302.492,188.049 301.492,193.382 307.5,200C 310.039,201.047 312.705,201.547 315.5,201.5C 321.645,200.638 327.812,199.971 334,199.5C 341.816,200.552 349.649,201.552 357.5,202.5C 366.623,200.862 375.623,201.196 384.5,203.5C 390.807,201.618 397.14,199.951 403.5,198.5C 415.222,200.059 416.222,203.892 406.5,210C 399.776,210.493 393.109,209.993 386.5,208.5C 378.139,211.757 369.472,213.757 360.5,214.5C 352.959,213.787 345.459,212.787 338,211.5C 321.122,213.757 304.289,213.924 287.5,212C 285.934,210.316 284.934,208.316 284.5,206C 289.316,195.843 294.149,185.676 299,175.5C 306.245,166.01 313.245,156.344 320,146.5C 333.637,120.217 349.637,95.5501 368,72.5C 369.777,69.2801 371.277,65.9467 372.5,62.5C 373.924,64.7178 375.924,66.2178 378.5,67C 389.849,68.8057 401.182,68.8057 412.5,67C 421.192,64.3468 421.525,61.3468 413.5,58C 405.423,57.9021 397.423,57.2355 389.5,56C 383.609,52.0636 382.109,46.8969 385,40.5C 391.194,33.4525 395.861,25.4525 399,16.5C 402.365,12.6128 406.532,10.2795 411.5,9.5 Z"/></g>
<g><path style="opacity:1" fill="#6e985b" d="M 397.5,37.5 C 400.568,37.5467 403.568,38.0467 406.5,39C 407.876,41.5402 407.21,43.5402 404.5,45C 398.485,45.8203 396.151,43.3203 397.5,37.5 Z"/></g>
<g><path style="opacity:1" fill="#6f9a5d" d="M 390.5,80.5 C 401.505,80.3335 412.505,80.5002 423.5,81C 433.445,83.1901 435.445,88.1901 429.5,96C 427.361,97.4039 425.028,98.2372 422.5,98.5C 415.234,97.1138 407.901,96.4472 400.5,96.5C 390.474,97.3444 380.474,98.1777 370.5,99C 362.396,97.992 360.729,94.3253 365.5,88C 373.41,83.7766 381.743,81.2766 390.5,80.5 Z"/></g>
<g><path style="opacity:1" fill="#090c08" d="M 424.5,164.5 C 429.617,165.655 430.784,168.655 428,173.5C 424.816,176.844 420.982,178.011 416.5,177C 414.376,174.592 414.543,172.092 417,169.5C 419.426,167.548 421.926,165.881 424.5,164.5 Z"/></g>
<g><path style="opacity:1" fill="#040603" d="M 381.5,166.5 C 385.967,166.133 390.3,166.633 394.5,168C 395.837,172.662 394.17,175.995 389.5,178C 386.167,178.667 382.833,178.667 379.5,178C 372.539,172.995 373.205,169.162 381.5,166.5 Z"/></g>
<g><path style="opacity:1" fill="#060805" d="M 450.5,167.5 C 458.414,166.612 462.914,169.945 464,177.5C 456.649,180.299 451.149,178.299 447.5,171.5C 448.172,169.84 449.172,168.507 450.5,167.5 Z"/></g>
<g><path style="opacity:1" fill="#040604" d="M 421.5,191.5 C 422.251,190.427 423.251,190.26 424.5,191C 428.11,192.944 431.443,195.277 434.5,198C 449.234,197.942 451.234,202.942 440.5,213C 436.805,216.214 432.805,216.88 428.5,215C 426.73,213.033 425.73,210.7 425.5,208C 426.497,203.862 426.664,199.696 426,195.5C 425.208,193.356 423.708,192.023 421.5,191.5 Z"/></g>
<g><path style="opacity:1" fill="#050604" d="M 469.5,204.5 C 477.806,203.482 484.472,206.149 489.5,212.5C 487.462,215.855 484.462,217.688 480.5,218C 474.149,219.856 467.816,219.856 461.5,218C 457.454,216.529 456.621,214.029 459,210.5C 462.101,207.648 465.601,205.648 469.5,204.5 Z"/></g>
<g><path style="opacity:1" fill="#040503" d="M 322.5,218.5 C 326.516,217.9 330.016,218.9 333,221.5C 332.859,226.329 330.359,229.496 325.5,231C 307.132,233.094 289.132,236.761 271.5,242C 265.813,247.821 267.146,251.321 275.5,252.5C 283.862,250.102 292.195,247.602 300.5,245C 306.147,245.3 311.814,245.3 317.5,245C 321.01,243.482 324.51,241.982 328,240.5C 334.568,242.493 336.068,246.326 332.5,252C 317.231,254.156 302.231,257.489 287.5,262C 283.9,264.048 280.4,266.214 277,268.5C 267.75,265.914 258.584,266.414 249.5,270C 247.773,271.389 246.439,273.056 245.5,275C 245.862,276.885 247.029,277.719 249,277.5C 255.66,275.586 262.16,273.252 268.5,270.5C 271.329,270.548 273.663,271.548 275.5,273.5C 270.002,278.16 264.335,282.66 258.5,287C 254.206,288.682 249.872,288.849 245.5,287.5C 244.227,281.337 242.727,275.337 241,269.5C 243.615,265.217 246.615,261.217 250,257.5C 253.03,248.391 257.197,239.891 262.5,232C 265.554,229.806 268.888,228.139 272.5,227C 284.817,225.917 297.15,224.917 309.5,224C 314.154,222.666 318.487,220.833 322.5,218.5 Z"/></g>
<g><path style="opacity:1" fill="#050704" d="M 399.5,230.5 C 407.003,231.012 409.67,234.846 407.5,242C 402.282,243.563 396.949,243.896 391.5,243C 386.228,241.184 385.561,238.518 389.5,235C 392.815,233.17 396.149,231.67 399.5,230.5 Z"/></g>
<g><path style="opacity:1" fill="#060705" d="M 439.5,231.5 C 445.492,231.582 451.325,232.582 457,234.5C 459.893,235.226 462.059,236.893 463.5,239.5C 460.932,242.62 457.599,244.453 453.5,245C 445.08,246.409 437.08,245.242 429.5,241.5C 428.386,240.277 428.219,238.944 429,237.5C 432.069,234.554 435.569,232.554 439.5,231.5 Z"/></g>
<g><path style="opacity:1" fill="#030402" d="M 133.5,430.5 C 138.214,426.721 143.047,423.054 148,419.5C 148.96,415.702 150.294,412.035 152,408.5C 161.247,399.257 169.747,389.424 177.5,379C 181.782,379.629 186.115,379.962 190.5,380C 193.693,378.974 195.026,376.808 194.5,373.5C 188.252,373.25 183.918,370.25 181.5,364.5C 183.133,360.367 186.133,357.867 190.5,357C 195.773,355.747 201.106,354.913 206.5,354.5C 206.5,353.167 206.5,351.833 206.5,350.5C 202.486,350.666 198.486,350.499 194.5,350C 192.604,348.192 192.104,346.025 193,343.5C 206.079,327.022 217.413,309.355 227,290.5C 230.49,286.953 234.657,285.786 239.5,287C 242.08,290.158 244.413,293.492 246.5,297C 248.5,297.667 250.5,297.667 252.5,297C 259.092,291.407 266.425,287.074 274.5,284C 281.313,277.756 288.98,272.756 297.5,269C 307.12,265.845 316.787,262.845 326.5,260C 343.492,260.361 360.492,260.361 377.5,260C 384.255,258.478 390.921,256.645 397.5,254.5C 404.99,256.578 411.99,259.745 418.5,264C 429.5,264.667 440.5,264.667 451.5,264C 456.5,263.251 461.167,261.584 465.5,259C 470.833,253 476.167,247 481.5,241C 492.694,238.948 501.027,243.114 506.5,253.5C 511.337,257.307 516.337,257.473 521.5,254C 525.879,244.708 523.545,237.708 514.5,233C 509.903,231.414 505.236,230.081 500.5,229C 496.15,227.673 494.317,224.84 495,220.5C 500.604,216.765 501.938,211.765 499,205.5C 493.56,198.4 486.394,194.233 477.5,193C 471.843,187.427 472.843,182.927 480.5,179.5C 480.833,178.333 481.167,177.167 481.5,176C 480.522,171.546 478.855,167.379 476.5,163.5C 477.947,157.856 481.114,156.523 486,159.5C 493.995,181.836 505.328,202.169 520,220.5C 522.396,225.689 524.396,231.023 526,236.5C 530,241.167 534,245.833 538,250.5C 539.274,254.99 540.941,259.323 543,263.5C 546.163,267.156 548.829,271.156 551,275.5C 551.468,283.854 547.968,286.021 540.5,282C 537.833,276.667 533.833,272.667 528.5,270C 517.062,269.057 515.062,272.723 522.5,281C 532.381,283.554 539.048,289.554 542.5,299C 542.01,301.503 540.677,303.503 538.5,305C 533.496,307.584 528.163,308.918 522.5,309C 522.043,309.414 521.709,309.914 521.5,310.5C 523.547,312.015 525.881,312.849 528.5,313C 535.249,313.877 541.916,313.544 548.5,312C 551.035,310.799 552.368,308.799 552.5,306C 550.785,302.325 550.285,298.492 551,294.5C 555.061,290.263 558.728,290.597 562,295.5C 565.231,301.399 569.231,306.732 574,311.5C 580.905,329.312 588.905,346.646 598,363.5C 604.755,373.344 611.755,383.01 619,392.5C 625.71,408.927 634.71,423.927 646,437.5C 651.104,450.144 647.604,452.977 635.5,446C 633.5,445.333 631.5,445.333 629.5,446C 615.524,459.214 602.524,458.214 590.5,443C 586.942,440.846 583.775,441.346 581,444.5C 580.333,445.5 580.333,446.5 581,447.5C 585.82,448.993 590.32,451.16 594.5,454C 598.012,457.736 598.345,461.736 595.5,466C 590.67,468.774 587.004,467.774 584.5,463C 581.833,462.667 579.167,462.333 576.5,462C 576.05,456.649 573.717,452.316 569.5,449C 559.053,443.885 549.72,437.219 541.5,429C 528.228,420.726 515.228,412.059 502.5,403C 491.446,396.806 480.112,391.139 468.5,386C 464.704,383.485 464.038,380.485 466.5,377C 470.261,376.262 473.928,376.595 477.5,378C 498.176,387.996 517.509,399.996 535.5,414C 545.632,418.81 554.632,425.143 562.5,433C 564.65,434.59 566.983,435.257 569.5,435C 570.554,433.612 570.72,432.112 570,430.5C 561.367,420.609 551.2,412.775 539.5,407C 531.349,400.848 523.849,394.015 517,386.5C 516.84,382.713 516.174,379.046 515,375.5C 510.627,372.143 507.46,367.976 505.5,363C 505.388,361.338 506.054,360.171 507.5,359.5C 516.803,362.455 524.136,359.955 529.5,352C 535.835,348.666 542.502,346.333 549.5,345C 550.899,343.938 551.899,342.605 552.5,341C 551.47,337.771 549.804,334.938 547.5,332.5C 548.305,330.528 549.639,329.028 551.5,328C 554.5,327.667 557.5,327.333 560.5,327C 563.167,325 563.167,323 560.5,321C 550.756,320.747 541.756,323.247 533.5,328.5C 530.922,332.071 528.255,335.571 525.5,339C 519.133,342.206 512.467,344.539 505.5,346C 504.282,347.438 503.615,349.105 503.5,351C 504.077,353.137 504.41,355.304 504.5,357.5C 497.736,359.24 491.236,358.574 485,355.5C 484.167,355.833 483.333,356.167 482.5,356.5C 487.266,361.056 492.599,364.89 498.5,368C 501.818,370.795 503.318,374.295 503,378.5C 500.936,379.591 498.769,379.758 496.5,379C 480.267,368.362 462.6,361.029 443.5,357C 432.704,355.985 422.037,354.318 411.5,352C 407.5,348.333 407.5,344.667 411.5,341C 417.192,341.837 422.859,343.003 428.5,344.5C 437.915,343.897 438.581,341.731 430.5,338C 421.891,333.981 412.891,332.647 403.5,334C 395.893,338.609 388.559,343.609 381.5,349C 375.523,351.098 369.69,350.931 364,348.5C 363.333,347.167 363.333,345.833 364,344.5C 366.999,342.956 370.166,341.789 373.5,341C 376.089,335.379 374.089,332.212 367.5,331.5C 355.649,333.418 345.982,338.918 338.5,348C 336.167,348.667 333.833,348.667 331.5,348C 326.876,345.847 322.21,344.014 317.5,342.5C 302.749,347.515 287.749,351.682 272.5,355C 264.092,360.399 255.425,365.399 246.5,370C 240.667,374.5 235.5,379.667 231,385.5C 230.709,390.189 230.709,394.856 231,399.5C 229.604,402.784 227.104,404.451 223.5,404.5C 221.231,403.797 219.231,402.63 217.5,401C 216.167,400.333 214.833,400.333 213.5,401C 206.044,404.227 199.044,408.227 192.5,413C 187.186,415.885 181.852,416.052 176.5,413.5C 175.386,412.277 175.219,410.944 176,409.5C 179.319,405.253 183.486,402.086 188.5,400C 191.67,396.598 191.003,394.432 186.5,393.5C 170.162,397.859 166.162,407.526 174.5,422.5C 174.281,423.938 173.781,425.271 173,426.5C 168.389,427.941 163.889,429.608 159.5,431.5C 163.616,434.11 165.116,437.777 164,442.5C 134.995,455.035 133.161,470.535 158.5,489C 162.545,491.573 166.878,493.573 171.5,495C 182.014,501.401 182.014,507.401 171.5,513C 168.5,516.667 165.5,520.333 162.5,524C 157.128,525.541 151.794,527.208 146.5,529C 145.941,529.725 145.608,530.558 145.5,531.5C 149.532,541.994 145.865,547.827 134.5,549C 131.084,549.893 127.917,549.393 125,547.5C 124.333,545.833 124.333,544.167 125,542.5C 126.828,540.919 128.828,539.585 131,538.5C 131.552,535.581 130.885,532.914 129,530.5C 121.49,522.91 112.49,517.91 102,515.5C 92.7189,517.401 89.7189,522.734 93,531.5C 96.9367,533.144 100.77,534.977 104.5,537C 109.526,542.217 113.692,548.05 117,554.5C 123.225,560.865 130.725,565.031 139.5,567C 147.702,567.837 155.702,569.503 163.5,572C 165.036,573.599 165.536,575.433 165,577.5C 162.934,579.45 160.767,581.283 158.5,583C 163.184,590.689 160.851,594.023 151.5,593C 146.833,589.667 142.833,585.667 139.5,581C 135.469,578.545 131.136,576.879 126.5,576C 112.824,574.799 99.1577,573.466 85.5,572C 79.0828,571.13 72.7494,571.464 66.5,573C 61.1688,574.64 58.6688,578.14 59,583.5C 60.4907,585.004 62.324,585.837 64.5,586C 73.0685,585.438 81.0685,587.272 88.5,591.5C 92.6558,588.616 92.3225,586.282 87.5,584.5C 86.0008,579.951 87.6674,576.951 92.5,575.5C 99.0164,581.851 105.683,588.017 112.5,594C 120.612,595.812 128.779,595.979 137,594.5C 140.564,595.079 144.064,595.913 147.5,597C 150.083,600.55 149.917,604.05 147,607.5C 145.055,608.863 142.888,609.697 140.5,610C 139.941,610.725 139.608,611.558 139.5,612.5C 141.582,618.845 145.249,624.012 150.5,628C 155.5,629 160.5,630 165.5,631C 178.242,631.105 190.908,632.105 203.5,634C 211.833,634.667 220.167,634.667 228.5,634C 234.469,632.702 238.635,629.202 241,623.5C 244.385,620.891 247.551,621.225 250.5,624.5C 252.249,626.583 253.082,628.916 253,631.5C 252.5,632 252,632.5 251.5,633C 246.771,633.273 242.104,633.939 237.5,635C 235.184,637.248 232.85,639.581 230.5,642C 228.577,642.808 226.577,643.308 224.5,643.5C 219.045,640.728 213.379,638.395 207.5,636.5C 203.386,638.057 199.386,639.89 195.5,642C 190.816,643.909 186.15,643.909 181.5,642C 181.167,639 179.5,637.333 176.5,637C 167.177,637.464 157.843,637.797 148.5,638C 145.253,634.524 143.587,630.357 143.5,625.5C 142.667,625.167 141.833,624.833 141,624.5C 136.948,626.204 133.115,628.371 129.5,631C 125.03,633.142 120.363,633.809 115.5,633C 111.337,631.184 110.503,628.351 113,624.5C 115.619,621.111 119.119,619.611 123.5,620C 124.022,619.439 124.355,618.772 124.5,618C 120.839,612.654 115.839,608.987 109.5,607C 102.306,605.057 94.9729,604.057 87.5,604C 82.9248,601.877 78.2581,600.044 73.5,598.5C 67.7758,599.936 65.6092,603.603 67,609.5C 68.5881,614.052 71.7548,616.885 76.5,618C 81.839,619.501 87.1723,621.001 92.5,622.5C 94.117,625.28 95.2837,628.28 96,631.5C 97.8003,634.051 99.8003,636.385 102,638.5C 102.342,643.152 100.176,644.986 95.5,644C 91.2171,641.385 87.2171,638.385 83.5,635C 78.0875,632.397 72.4208,630.563 66.5,629.5C 65.9661,627.386 64.9661,625.552 63.5,624C 55.4945,620.504 47.6612,620.671 40,624.5C 39.3333,626.5 39.3333,628.5 40,630.5C 43.2025,634.608 44.7025,639.275 44.5,644.5C 35.0486,644.895 25.7152,644.062 16.5,642C 13.1247,640.971 11.9581,638.804 13,635.5C 18.7459,627.083 25.2459,619.25 32.5,612C 34.1667,611 35.8333,610 37.5,609C 41.893,608.983 46.0597,608.15 50,606.5C 50.7494,605.365 50.5827,604.365 49.5,603.5C 44.9968,601.536 42.9968,598.036 43.5,593C 43.8625,587.324 45.0291,581.824 47,576.5C 54.1329,567.594 60.7996,558.261 67,548.5C 69.8147,542.377 72.8147,536.377 76,530.5C 81.6667,523.5 87.3333,516.5 93,509.5C 98.2485,499.33 104.248,489.663 111,480.5C 116.961,475.963 121.294,477.297 124,484.5C 124.044,489.146 121.71,492.146 117,493.5C 114.724,504.933 119.391,511.599 131,513.5C 140.227,512.052 149.394,512.385 158.5,514.5C 165.05,514.823 166.717,512.323 163.5,507C 150.464,500.65 140.131,491.317 132.5,479C 129.282,476.223 125.615,474.223 121.5,473C 119.635,470.412 118.802,467.578 119,464.5C 122.581,459.672 125.915,454.672 129,449.5C 131.29,443.342 132.79,437.008 133.5,430.5 Z"/></g>
<g><path style="opacity:1" fill="#090b07" d="M 360.5,233.5 C 365.977,232.928 370.31,234.761 373.5,239C 370.215,244.873 365.215,247.54 358.5,247C 353.744,244.661 352.577,241.161 355,236.5C 356.876,235.391 358.709,234.391 360.5,233.5 Z"/></g>
<g><path style="opacity:1" fill="#719d5e" d="M 481.5,253.5 C 487.865,252.901 493.865,254.068 499.5,257C 503.792,264.143 502.125,269.81 494.5,274C 485.835,276.211 478.668,274.044 473,267.5C 472.333,265.5 472.333,263.5 473,261.5C 475.074,257.923 477.907,255.256 481.5,253.5 Z"/></g>
<g><path style="opacity:1" fill="#719c5e" d="M 360.5,271.5 C 362.288,271.215 363.955,271.548 365.5,272.5C 365.167,272.833 364.833,273.167 364.5,273.5C 358.086,276.789 351.919,280.456 346,284.5C 344.865,289.2 346.699,291.866 351.5,292.5C 359.453,289.905 367.453,287.405 375.5,285C 383.936,280.782 392.602,277.115 401.5,274C 412.45,272.454 423.45,272.121 434.5,273C 437.646,273.11 438.646,274.443 437.5,277C 430.266,277.633 423.099,277.133 416,275.5C 413.144,275.871 410.311,276.371 407.5,277C 400.926,281.119 393.926,284.453 386.5,287C 381.985,292.818 383.485,296.318 391,297.5C 401.022,294.453 411.188,291.953 421.5,290C 428.011,288.968 434.344,289.468 440.5,291.5C 441.833,293.167 441.833,294.833 440.5,296.5C 433.452,299.154 428.452,303.821 425.5,310.5C 415.795,317.853 405.128,323.353 393.5,327C 374.5,329.871 355.5,330.038 336.5,327.5C 332.092,328.73 327.759,330.23 323.5,332C 311.591,333.796 299.758,335.963 288,338.5C 284.622,338.765 281.788,337.765 279.5,335.5C 285.741,331.788 291.574,327.454 297,322.5C 300.652,314.928 298.485,311.095 290.5,311C 283.132,314.035 279.299,319.535 279,327.5C 270.247,337.886 261.414,338.053 252.5,328C 247.984,326.306 243.65,324.472 239.5,322.5C 239.709,321.914 240.043,321.414 240.5,321C 247.185,320.334 253.851,320.501 260.5,321.5C 266.193,321.397 271.36,319.73 276,316.5C 276.97,313.173 275.803,311.007 272.5,310C 273.833,308.667 275.167,307.333 276.5,306C 285.599,302.057 294.933,298.724 304.5,296C 323.21,287.468 341.877,279.301 360.5,271.5 Z"/></g>
<g><path style="opacity:1" fill="#070a06" d="M 320.5,293.5 C 322.857,293.337 325.19,293.503 327.5,294C 328.885,298.326 327.218,300.992 322.5,302C 320.167,302.667 317.833,302.667 315.5,302C 314.446,300.612 314.28,299.112 315,297.5C 316.812,296.023 318.645,294.69 320.5,293.5 Z"/></g>
<g><path style="opacity:1" fill="#709c5e" d="M 502.5,294.5 C 508.659,294.034 514.659,294.701 520.5,296.5C 521.711,297.274 521.711,298.107 520.5,299C 514.167,299.333 507.833,299.667 501.5,300C 490.649,304.927 480.982,311.594 472.5,320C 464.869,325.899 456.369,330.065 447,332.5C 439.318,331.833 433.652,328.166 430,321.5C 429.333,319.5 429.333,317.5 430,315.5C 436.608,309.559 443.775,304.392 451.5,300C 461.458,298.835 471.458,298.168 481.5,298C 488.693,297.142 495.693,295.976 502.5,294.5 Z"/></g>
<g><path style="opacity:1" fill="#090c07" d="M 339.5,310.5 C 344.032,310.069 348.365,310.569 352.5,312C 351.541,313.464 350.208,314.297 348.5,314.5C 343.867,315.448 339.201,316.114 334.5,316.5C 334.749,313.256 336.416,311.256 339.5,310.5 Z"/></g>
<g><path style="opacity:1" fill="#080b07" d="M 381.5,310.5 C 383.927,310.523 386.26,311.023 388.5,312C 389.799,317.689 387.466,319.689 381.5,318C 378.88,315.441 378.88,312.941 381.5,310.5 Z"/></g>
<g><path style="opacity:1" fill="#709b5d" d="M 495.5,315.5 C 502.413,315.956 508.746,318.122 514.5,322C 518.393,325.746 518.393,329.412 514.5,333C 506.124,335.875 498.958,334.041 493,327.5C 490.696,322.855 491.529,318.855 495.5,315.5 Z"/></g>
<g><path style="opacity:1" fill="#6e995c" d="M 214.5,328.5 C 217.85,328.335 221.183,328.502 224.5,329C 225.597,333.296 223.931,336.296 219.5,338C 215.096,339.132 212.096,337.632 210.5,333.5C 211.127,331.213 212.46,329.546 214.5,328.5 Z"/></g>
<g><path style="opacity:1" fill="#709b5d" d="M 477.5,327.5 C 489.794,325.962 495.294,331.295 494,343.5C 485.19,345.68 477.523,343.347 471,336.5C 470.333,334.833 470.333,333.167 471,331.5C 473.013,329.752 475.18,328.418 477.5,327.5 Z"/></g>
<g><path style="opacity:1" fill="#6f995c" d="M 235.5,337.5 C 240.709,336.705 242.709,338.705 241.5,343.5C 238.439,346.576 234.772,347.743 230.5,347C 229.424,345.274 229.257,343.441 230,341.5C 231.812,340.023 233.645,338.69 235.5,337.5 Z"/></g>
<g><path style="opacity:1" fill="#709b5e" d="M 565.5,346.5 C 568.909,346.249 572.242,346.583 575.5,347.5C 577.336,352.536 575.669,356.036 570.5,358C 563.44,359.271 560.94,356.438 563,349.5C 564.045,348.627 564.878,347.627 565.5,346.5 Z"/></g>
<g><path style="opacity:1" fill="#6d975b" d="M 251.5,347.5 C 258.492,347.468 260.159,350.301 256.5,356C 254.19,356.497 251.857,356.663 249.5,356.5C 249.207,353.246 249.874,350.246 251.5,347.5 Z"/></g>
<g><path style="opacity:1" fill="#060805" d="M 303.5,351.5 C 309.448,351.179 312.281,353.845 312,359.5C 309.083,361.393 305.916,361.893 302.5,361C 298.379,357.329 298.712,354.163 303.5,351.5 Z"/></g>
<g><path style="opacity:1" fill="#6f9a5d" d="M 537.5,358.5 C 546.536,357.727 550.702,361.727 550,370.5C 546.976,374.292 542.976,375.958 538,375.5C 530.179,376.343 527.512,373.009 530,365.5C 532.396,362.933 534.896,360.6 537.5,358.5 Z"/></g>
<g><path style="opacity:1" fill="#709b5e" d="M 216.5,360.5 C 223.571,359.583 227.237,362.583 227.5,369.5C 221.712,370.764 217.379,368.931 214.5,364C 214.978,362.697 215.645,361.531 216.5,360.5 Z"/></g>
<g><path style="opacity:1" fill="#070905" d="M 272.5,364.5 C 276.691,364.584 279.358,366.584 280.5,370.5C 280.471,372.029 279.804,373.196 278.5,374C 268.777,377.361 259.777,382.027 251.5,388C 248.104,390.036 244.938,389.869 242,387.5C 241.37,385.097 242.203,383.263 244.5,382C 248.951,381.87 253.284,381.204 257.5,380C 262.758,374.911 267.758,369.745 272.5,364.5 Z"/></g>
<g><path style="opacity:1" fill="#020201" d="M 423.5,369.5 C 427.182,369.335 430.848,369.501 434.5,370C 435.624,370.249 436.624,370.749 437.5,371.5C 434.271,373.074 431.104,374.741 428,376.5C 427.464,378.567 427.964,380.401 429.5,382C 445.119,384.978 459.452,390.978 472.5,400C 479.136,402.983 485.803,405.983 492.5,409C 517.275,425.443 541.775,442.276 566,459.5C 566.839,462.14 566.339,464.473 564.5,466.5C 549.834,476.169 534.834,485.335 519.5,494C 510.948,497.638 502.281,500.971 493.5,504C 489.565,506.946 485.398,509.446 481,511.5C 478.717,511.051 477.217,509.717 476.5,507.5C 484.934,499.571 492.434,490.905 499,481.5C 500.725,478.326 502.058,474.993 503,471.5C 504.012,465.093 505.345,458.76 507,452.5C 509,451.167 511,449.833 513,448.5C 514.123,445.044 513.29,442.21 510.5,440C 501.506,433.501 492.173,427.501 482.5,422C 477.176,418.65 471.509,417.817 465.5,419.5C 464.585,420.328 463.919,421.328 463.5,422.5C 465.527,425.194 467.861,427.527 470.5,429.5C 468.747,432.005 467.247,434.671 466,437.5C 462.492,452.886 457.159,467.552 450,481.5C 446.285,486.548 441.452,490.048 435.5,492C 426.303,500.103 415.97,506.436 404.5,511C 382.912,513.545 361.245,514.545 339.5,514C 317.449,508.226 298.282,497.392 282,481.5C 281.833,481.167 281.667,480.833 281.5,480.5C 284.106,479.348 286.773,479.182 289.5,480C 295.067,481.783 300.401,484.117 305.5,487C 306.944,487.781 308.277,487.614 309.5,486.5C 291.099,474.765 276.433,459.432 265.5,440.5C 261.097,439.712 259.097,437.046 259.5,432.5C 259.691,428.926 260.691,425.593 262.5,422.5C 260.635,421.334 258.968,421.667 257.5,423.5C 254.638,429.872 253.805,436.539 255,443.5C 257.213,451.471 260.213,459.138 264,466.5C 267.775,485.222 276.608,501.056 290.5,514C 295.59,516.476 300.59,519.143 305.5,522C 307.26,522.965 307.594,524.132 306.5,525.5C 301.109,527.2 296.109,526.367 291.5,523C 289.129,520.294 286.463,517.961 283.5,516C 280.5,515.333 277.5,515.333 274.5,516C 270.311,518.257 265.977,518.757 261.5,517.5C 260.246,515.741 260.579,514.241 262.5,513C 265.365,512.163 268.198,511.33 271,510.5C 271.667,508.167 271.667,505.833 271,503.5C 260.563,491.967 253.23,478.634 249,463.5C 247.213,459.423 245.046,455.59 242.5,452C 239.783,450.967 237.949,451.8 237,454.5C 235.826,459.75 235.159,465.084 235,470.5C 233.214,473.902 230.714,474.402 227.5,472C 226.093,468.884 224.76,465.717 223.5,462.5C 219.652,458 216.985,458.5 215.5,464C 218.773,475.484 226.439,480.151 238.5,478C 243.027,482.892 247.193,488.059 251,493.5C 255.92,505.165 252.087,511.331 239.5,512C 231.5,507.667 223.5,503.333 215.5,499C 213.659,495.372 210.659,493.372 206.5,493C 194.851,491.909 183.184,490.909 171.5,490C 166.585,485.756 162.419,480.923 159,475.5C 158.775,468.507 160.775,462.173 165,456.5C 174.486,445.671 186.319,438.838 200.5,436C 200.709,429.706 202.709,424.039 206.5,419C 215.138,416.336 223.805,413.669 232.5,411C 240.271,407.115 248.271,403.781 256.5,401C 272.794,397.261 288.794,392.594 304.5,387C 311.791,385.919 319.124,385.253 326.5,385C 332.801,383.508 339.135,382.175 345.5,381C 366.829,381.239 388.163,381.239 409.5,381C 414.712,380.246 418.045,377.413 419.5,372.5C 420.901,371.479 422.235,370.479 423.5,369.5 Z"/></g>
<g><path style="opacity:1" fill="#6f995d" d="M 550.5,381.5 C 556.216,381.387 559.05,384.054 559,389.5C 552.142,393.304 548.809,391.304 549,383.5C 549.717,382.956 550.217,382.289 550.5,381.5 Z"/></g>
<g><path style="opacity:1" fill="#709b5e" d="M 576.5,397.5 C 581.801,397.099 586.301,398.766 590,402.5C 590.667,403.833 590.667,405.167 590,406.5C 586.688,408.645 583.854,411.312 581.5,414.5C 582.538,419.352 585.538,421.852 590.5,422C 593.21,423.46 593.876,425.46 592.5,428C 589.366,428.79 586.366,428.457 583.5,427C 577.382,422.882 571.882,418.049 567,412.5C 565.627,410.305 565.294,407.971 566,405.5C 568.855,401.789 572.355,399.123 576.5,397.5 Z"/></g>
<g><path style="opacity:1" fill="#729d5f" d="M 377.5,398.5 C 378.552,398.351 379.552,398.517 380.5,399C 375.681,406.154 369.348,411.487 361.5,415C 356.293,422.383 357.96,427.55 366.5,430.5C 366.833,431.333 367.167,432.167 367.5,433C 365.729,435.941 363.395,438.441 360.5,440.5C 357.049,453.725 349.049,457.559 336.5,452C 325.922,444.665 318.922,434.832 315.5,422.5C 317.163,416.665 320.829,412.498 326.5,410C 336.779,408.043 347.112,406.376 357.5,405C 364.504,403.498 371.171,401.331 377.5,398.5 Z"/></g>
<g><path style="opacity:1" fill="#709b5e" d="M 423.5,410.5 C 424.833,410.5 426.167,410.5 427.5,410.5C 427.796,422.581 426.963,434.581 425,446.5C 419.939,462.146 410.106,473.646 395.5,481C 391.5,481.667 387.5,481.667 383.5,481C 371.874,473.893 366.041,477.06 366,490.5C 363.541,493.1 361.041,493.1 358.5,490.5C 357.219,486.625 355.886,482.791 354.5,479C 352.577,478.192 350.577,477.692 348.5,477.5C 344.578,478.394 340.911,479.894 337.5,482C 331.97,482.914 326.637,482.247 321.5,480C 312.387,473.366 303.22,466.866 294,460.5C 291.174,454.178 287.841,448.178 284,442.5C 282.346,436.561 281.346,430.561 281,424.5C 283.475,421.476 286.475,420.81 290,422.5C 290.418,424.788 289.751,426.788 288,428.5C 286.469,437.383 288.802,445.05 295,451.5C 303.156,460.316 312.323,467.816 322.5,474C 326.595,476.22 330.928,476.887 335.5,476C 336.167,475.333 336.833,474.667 337.5,474C 328.139,468.643 319.972,461.809 313,453.5C 312.312,452.668 312.479,452.002 313.5,451.5C 321.814,456.325 330.148,461.159 338.5,466C 356.897,474.517 375.231,474.517 393.5,466C 398.22,465.214 402.886,464.214 407.5,463C 415.93,452.351 420.93,440.185 422.5,426.5C 420.918,420.903 421.251,415.57 423.5,410.5 Z"/></g>
<g><path style="opacity:1" fill="#6d975b" d="M 210.5,423.5 C 212.167,423.5 213.833,423.5 215.5,423.5C 215.5,425.5 215.5,427.5 215.5,429.5C 212.635,429.945 210.135,429.278 208,427.5C 207.333,426.833 207.333,426.167 208,425.5C 208.995,424.934 209.828,424.267 210.5,423.5 Z"/></g>
<g><path style="opacity:1" fill="#040603" d="M 475.5,431.5 C 486.927,431.585 493.927,437.252 496.5,448.5C 491.765,457.639 487.265,466.973 483,476.5C 477.374,483.794 471.374,490.794 465,497.5C 461.006,504.797 457.006,512.131 453,519.5C 449.923,522.809 446.423,523.309 442.5,521C 438.608,518.996 437.775,516.163 440,512.5C 448.924,504.581 455.924,495.247 461,484.5C 481.251,471.962 485.085,455.462 472.5,435C 473.071,433.401 474.071,432.234 475.5,431.5 Z"/></g>
<g><path style="opacity:0.998" fill="#030403" d="M 676.5,488.5 C 689.087,510.673 701.42,533.006 713.5,555.5C 710.391,557.021 707.058,557.854 703.5,558C 702.397,559.68 702.73,561.18 704.5,562.5C 707.366,563.182 709.866,564.516 712,566.5C 712.667,567.833 712.667,569.167 712,570.5C 707.895,573.894 703.395,574.394 698.5,572C 691.623,566.927 683.956,563.594 675.5,562C 665.833,561.333 656.167,561.333 646.5,562C 644.919,562.707 643.419,563.54 642,564.5C 639.621,568.029 640.454,570.529 644.5,572C 647.833,573 651.167,574 654.5,575C 660.193,578.537 666.193,581.37 672.5,583.5C 680.845,582.064 689.178,580.564 697.5,579C 704.833,578.333 712.167,578.333 719.5,579C 720.931,579.465 722.097,580.299 723,581.5C 723.497,584.146 723.664,586.813 723.5,589.5C 714.847,590.501 706.181,590.667 697.5,590C 695.376,591.122 693.543,592.622 692,594.5C 690.516,601.135 686.516,603.135 680,600.5C 675.46,602.125 670.793,603.125 666,603.5C 657.893,601.238 649.726,599.405 641.5,598C 640.316,601.563 641.316,604.563 644.5,607C 650.657,609.91 656.824,612.743 663,615.5C 664.06,619.526 665.227,623.526 666.5,627.5C 667.086,627.291 667.586,626.957 668,626.5C 669.063,620.978 670.73,615.644 673,610.5C 675.707,606.965 679.207,605.798 683.5,607C 690.106,609.248 692.939,613.748 692,620.5C 685.793,626.375 679.293,631.875 672.5,637C 665.132,639.29 661.466,636.624 661.5,629C 655.421,626.863 649.421,624.529 643.5,622C 639.572,620.675 635.572,620.342 631.5,621C 630.573,625.591 627.906,628.591 623.5,630C 615.29,632.214 606.956,632.881 598.5,632C 595.8,631.051 594.967,629.217 596,626.5C 600.166,622.001 605.333,619.501 611.5,619C 616.882,618.693 622.215,618.026 627.5,617C 631.325,615.232 631.325,613.232 627.5,611C 617.958,605.258 607.624,602.758 596.5,603.5C 587.252,602.604 578.752,604.604 571,609.5C 570.333,610.833 570.333,612.167 571,613.5C 574.28,617.735 578.447,620.902 583.5,623C 584.749,625.21 584.582,627.376 583,629.5C 574.552,638.213 565.052,639.713 554.5,634C 558.874,631.872 563.04,629.372 567,626.5C 567.958,624.801 568.458,622.967 568.5,621C 568.501,614.761 565.501,611.594 559.5,611.5C 554.202,612.662 548.869,613.162 543.5,613C 540.084,607.412 541.417,603.412 547.5,601C 555.154,599.585 562.821,598.252 570.5,597C 573.173,595.999 575.507,594.499 577.5,592.5C 578.767,590.629 578.767,588.796 577.5,587C 568.913,581.682 559.579,579.682 549.5,581C 528.999,584.542 508.665,588.875 488.5,594C 451.883,598.102 415.216,601.769 378.5,605C 340.786,605.865 303.12,604.865 265.5,602C 259.852,601.34 254.519,599.673 249.5,597C 241.82,596.925 234.153,597.425 226.5,598.5C 217.99,597.053 209.657,594.886 201.5,592C 194.209,590.919 186.876,590.253 179.5,590C 175.576,587.182 175.576,584.182 179.5,581C 185.587,578.94 191.587,579.274 197.5,582C 200.718,584.777 204.385,586.777 208.5,588C 237.849,589.541 267.183,591.707 296.5,594.5C 312.232,592.876 327.898,593.209 343.5,595.5C 347.5,595 351.5,594.5 355.5,594C 372.167,593.667 388.833,593.333 405.5,593C 410.015,591.995 414.349,590.495 418.5,588.5C 420.755,591.404 423.755,593.071 427.5,593.5C 451.662,588.701 475.662,583.201 499.5,577C 513.684,573.935 528.017,571.935 542.5,571C 556.804,567.539 571.138,564.206 585.5,561C 590.709,558.209 590.709,555.209 585.5,552C 579.518,549.069 573.185,547.403 566.5,547C 563.392,545.06 562.725,542.394 564.5,539C 567.763,537.142 571.263,535.975 575,535.5C 581.699,536.933 587.866,539.599 593.5,543.5C 595.821,540.87 597.654,537.87 599,534.5C 601.958,530.855 605.625,528.188 610,526.5C 612.035,522.698 611.202,519.531 607.5,517C 602.635,515.381 597.968,513.381 593.5,511C 589.923,509.148 588.923,506.482 590.5,503C 594.909,499.419 599.909,498.085 605.5,499C 610.833,503.667 616.167,508.333 621.5,513C 625.491,515.246 629.657,517.079 634,518.5C 647.734,523.702 659.401,520.702 669,509.5C 671.971,502.454 670.137,497.12 663.5,493.5C 662.28,493.887 661.613,494.72 661.5,496C 666.657,504.552 664.157,509.385 654,510.5C 638.927,504.547 624.427,497.38 610.5,489C 607.923,487.75 605.257,487.416 602.5,488C 595.108,492.45 587.941,497.283 581,502.5C 577.895,507.861 578.061,513.194 581.5,518.5C 580.747,520.753 579.414,522.587 577.5,524C 571.131,528.348 564.131,531.348 556.5,533C 534.866,536.04 513.533,534.707 492.5,529C 487.921,527.423 484.921,528.923 483.5,533.5C 485.316,537.139 487.316,540.639 489.5,544C 489.241,545.261 488.574,546.261 487.5,547C 483.442,547.34 479.442,548.007 475.5,549C 470.082,552.883 464.082,554.716 457.5,554.5C 457.253,551.495 458.253,548.995 460.5,547C 464.5,546.667 468.5,546.333 472.5,546C 475.032,545.388 475.865,543.888 475,541.5C 471.912,538.687 468.245,537.021 464,536.5C 445.802,543.473 426.968,547.64 407.5,549C 405.154,550.013 403.487,551.679 402.5,554C 404.807,556.26 407.307,558.427 410,560.5C 410.667,561.5 410.667,562.5 410,563.5C 401.913,564.703 396.079,561.537 392.5,554C 383.539,547.78 378.039,549.946 376,560.5C 372.306,564.24 368.473,564.407 364.5,561C 359.433,554.212 352.6,550.379 344,549.5C 338.319,550.236 337.152,552.903 340.5,557.5C 343.941,558.607 345.941,560.94 346.5,564.5C 344.593,568.743 341.759,569.409 338,566.5C 336.846,558.683 332.679,553.183 325.5,550C 313.947,547.768 302.28,546.434 290.5,546C 285.328,545.377 280.661,543.544 276.5,540.5C 278.078,539.702 279.744,539.202 281.5,539C 296.5,538.333 311.5,538.333 326.5,539C 352.282,544.091 377.949,543.591 403.5,537.5C 410.75,539.28 418.083,539.78 425.5,539C 434.157,536.007 442.824,533.007 451.5,530C 463.091,529.417 474.424,527.417 485.5,524C 493.609,518.612 502.276,514.279 511.5,511C 517.191,507.487 522.524,503.487 527.5,499C 532.524,498.081 537.524,497.081 542.5,496C 549.391,488.432 557.391,482.432 566.5,478C 569.167,475.333 571.833,472.667 574.5,470C 580.751,467.708 583.584,469.875 583,476.5C 574.564,485.108 565.398,492.774 555.5,499.5C 554.614,500.325 554.281,501.325 554.5,502.5C 557.271,502.579 559.937,502.079 562.5,501C 569.672,496.581 576.672,491.915 583.5,487C 587.623,484.066 590.29,480.232 591.5,475.5C 597.781,474.596 603.781,472.763 609.5,470C 615.147,465.177 621.147,460.843 627.5,457C 631.642,456.273 635.642,455.273 639.5,454C 645.895,452.716 651.729,453.883 657,457.5C 658.712,462.137 660.712,466.47 663,470.5C 660.88,473.43 658.047,475.263 654.5,476C 644.123,475.82 633.79,475.154 623.5,474C 622.353,480.899 625.353,485.232 632.5,487C 642.216,487.541 651.883,487.041 661.5,485.5C 666.804,485.14 671.804,486.14 676.5,488.5 Z"/></g>
<g><path style="opacity:1" fill="#070906" d="M 201.5,503.5 C 207.079,503.109 210.746,505.442 212.5,510.5C 208.676,517.658 203.842,518.325 198,512.5C 196.665,508.392 197.832,505.392 201.5,503.5 Z"/></g>
<g><path style="opacity:1" fill="#6f995c" d="M 526.5,511.5 C 533.162,510.997 535.662,513.997 534,520.5C 529.925,524.41 525.925,524.41 522,520.5C 521.377,516.412 522.877,513.412 526.5,511.5 Z"/></g>
<g><path style="opacity:1" fill="#6c955a" d="M 550.5,516.5 C 556.17,516.339 559.003,519.006 559,524.5C 553.674,528.027 550.174,526.693 548.5,520.5C 549.18,519.14 549.847,517.807 550.5,516.5 Z"/></g>
<g><path style="opacity:1" fill="#090d08" d="M 183.5,524.5 C 190.428,524.609 194.262,527.943 195,534.5C 188.243,537.214 183.41,535.047 180.5,528C 181.071,526.401 182.071,525.234 183.5,524.5 Z"/></g>
<g><path style="opacity:1" fill="#709b5d" d="M 668.5,527.5 C 677.203,526.104 684.37,528.771 690,535.5C 690.411,541.933 687.244,545.266 680.5,545.5C 674.225,545.282 669.392,542.616 666,537.5C 664.861,533.579 665.695,530.246 668.5,527.5 Z"/></g>
<g><path style="opacity:1" fill="#070906" d="M 218.5,532.5 C 223.447,531.628 227.613,532.961 231,536.5C 231.092,540.089 229.259,542.256 225.5,543C 221.375,543.854 217.375,543.52 213.5,542C 211.38,540.477 211.047,538.644 212.5,536.5C 214.29,534.684 216.29,533.351 218.5,532.5 Z"/></g>
<g><path style="opacity:1" fill="#719c5e" d="M 619.5,532.5 C 633.352,531.618 645.852,535.285 657,543.5C 658.271,547.166 657.104,549.666 653.5,551C 637.973,557.994 621.973,559.327 605.5,555C 600.751,550.884 600.418,546.551 604.5,542C 606.913,541.516 609.246,541.85 611.5,543C 614.167,545.333 616.833,547.667 619.5,550C 622.588,550.847 625.421,550.347 628,548.5C 628.684,547.216 628.517,546.049 627.5,545C 624.833,544.667 622.167,544.333 619.5,544C 615.787,542.309 614.621,539.475 616,535.5C 617.145,534.364 618.312,533.364 619.5,532.5 Z"/></g>
<g><path style="opacity:1" fill="#080b07" d="M 163.5,543.5 C 173.491,544.681 174.158,548.181 165.5,554C 163.167,554.667 160.833,554.667 158.5,554C 157.807,549.546 159.473,546.046 163.5,543.5 Z"/></g>
<g><path style="opacity:1" fill="#709b5d" d="M 82.5,544.5 C 87.742,544.023 92.742,544.856 97.5,547C 102.68,551.588 102.68,555.921 97.5,560C 90.119,560.992 83.119,559.825 76.5,556.5C 74.7438,554.809 74.2438,552.809 75,550.5C 77.1337,547.847 79.6337,545.847 82.5,544.5 Z"/></g>
<g><path style="opacity:1" fill="#040503" d="M 535.5,544.5 C 545.157,545.023 546.157,548.523 538.5,555C 531.29,557.97 523.957,560.637 516.5,563C 485.038,570.359 453.372,576.692 421.5,582C 397.816,582.381 374.149,583.214 350.5,584.5C 328.866,583.058 307.199,582.224 285.5,582C 275.821,580.748 266.155,579.415 256.5,578C 253.363,577.399 250.363,576.399 247.5,575C 244.733,572.101 245.4,570.101 249.5,569C 252.5,568.833 255.5,568.667 258.5,568.5C 268.944,569.194 279.277,570.694 289.5,573C 335.52,573.942 381.52,573.609 427.5,572C 463.804,563.513 499.804,554.346 535.5,544.5 Z"/></g>
<g><path style="opacity:1" fill="#060805" d="M 282.5,551.5 C 290.765,552.838 292.098,556.338 286.5,562C 283.007,563.004 279.841,562.504 277,560.5C 276.333,559.167 276.333,557.833 277,556.5C 278.73,554.598 280.563,552.931 282.5,551.5 Z"/></g>
<g><path style="opacity:1" fill="#050604" d="M 186.5,552.5 C 191.599,552.175 196.599,552.675 201.5,554C 204.394,556.909 205.227,560.409 204,564.5C 202.687,565.573 201.187,566.24 199.5,566.5C 194.798,566.06 190.464,564.56 186.5,562C 182.778,558.936 182.778,555.77 186.5,552.5 Z"/></g>
<g><path style="opacity:1" fill="#090c07" d="M 434.5,553.5 C 438.377,553.231 440.544,554.898 441,558.5C 437.411,561.395 434.578,560.729 432.5,556.5C 433.193,555.482 433.859,554.482 434.5,553.5 Z"/></g>
<g><path style="opacity:1" fill="#080a06" d="M 226.5,559.5 C 230.58,559.081 232.58,560.914 232.5,565C 231.795,572.18 228.128,574.513 221.5,572C 219.684,566.462 221.351,562.295 226.5,559.5 Z"/></g>
<g><path style="opacity:1" fill="#709c5e" d="M 601.5,569.5 C 611.616,569.137 621.282,570.971 630.5,575C 636.372,581.225 635.705,586.558 628.5,591C 614.718,592.971 601.718,590.637 589.5,584C 583.94,579.478 584.273,575.478 590.5,572C 594.312,571.205 597.979,570.371 601.5,569.5 Z"/></g>
<g><path style="opacity:0.992" fill="#030402" d="M 733.5,592.5 C 737.671,598.838 741.337,605.504 744.5,612.5C 743.63,616.663 740.964,618.829 736.5,619C 734.987,621.454 735.654,623.121 738.5,624C 741.833,624.333 745.167,624.667 748.5,625C 754.06,629.522 753.727,633.522 747.5,637C 731.821,638.416 716.155,638.916 700.5,638.5C 695.896,637.324 694.896,634.99 697.5,631.5C 701.804,628.787 706.471,626.953 711.5,626C 715.077,624.148 716.077,621.482 714.5,618C 709.833,617.667 705.167,617.333 700.5,617C 698.394,613.961 696.894,610.795 696,607.5C 698.133,605.147 700.8,604.147 704,604.5C 709.402,606.1 714.902,606.6 720.5,606C 725.383,603.736 727.883,599.902 728,594.5C 729.444,592.845 731.278,592.178 733.5,592.5 Z"/></g>
<g><path style="opacity:1" fill="#050804" d="M 508.5,604.5 C 514.294,603.866 518.294,606.2 520.5,611.5C 519.872,613.258 518.872,614.758 517.5,616C 509.448,620.611 501.614,620.444 494,615.5C 493.37,613.097 494.203,611.263 496.5,610C 500.451,607.855 504.451,606.021 508.5,604.5 Z"/></g>
<g><path style="opacity:1" fill="#060805" d="M 172.5,605.5 C 179.005,606.252 185.005,608.418 190.5,612C 194.039,612.282 197.539,612.782 201,613.5C 205.124,612.428 209.29,612.262 213.5,613C 218.992,615.942 219.658,619.609 215.5,624C 211.833,624.667 208.167,624.667 204.5,624C 199.59,621.377 194.59,619.044 189.5,617C 182.065,616.39 174.731,616.723 167.5,618C 165.582,616.23 165.082,614.063 166,611.5C 167.494,608.686 169.66,606.686 172.5,605.5 Z"/></g>
<g><path style="opacity:1" fill="#050604" d="M 469.5,609.5 C 479.16,610.19 480.16,614.024 472.5,621C 465.254,624.897 458.587,624.23 452.5,619C 457.368,614.237 463.034,611.07 469.5,609.5 Z"/></g>
<g><path style="opacity:1" fill="#090c07" d="M 272.5,609.5 C 276.677,608.842 278.177,610.508 277,614.5C 273.988,618.48 271.488,618.313 269.5,614C 269.957,612.06 270.957,610.56 272.5,609.5 Z"/></g>
<g><path style="opacity:1" fill="#030503" d="M 423.5,612.5 C 431.867,612.331 434.2,615.831 430.5,623C 426.125,625.085 421.958,624.918 418,622.5C 417.333,620.833 417.333,619.167 418,617.5C 419.73,615.598 421.563,613.931 423.5,612.5 Z"/></g>
<g><path style="opacity:1" fill="#0a0d08" d="M 382.5,614.5 C 393.688,614.572 394.354,617.405 384.5,623C 376.276,622.042 375.61,619.209 382.5,614.5 Z"/></g>
<g><path style="opacity:1" fill="#080b07" d="M 339.5,615.5 C 344.083,614.343 346.75,616.01 347.5,620.5C 345.777,625.196 342.444,627.029 337.5,626C 336.426,625.261 335.759,624.261 335.5,623C 336.457,620.251 337.79,617.751 339.5,615.5 Z"/></g>
<g><path style="opacity:1" fill="#040604" d="M 522.5,628.5 C 526.967,628.133 531.3,628.633 535.5,630C 540.085,635.057 539.085,638.723 532.5,641C 527.56,642.041 522.894,641.374 518.5,639C 516.375,637.263 515.542,635.096 516,632.5C 518.013,630.752 520.18,629.418 522.5,628.5 Z"/></g>
<g><path style="opacity:1" fill="#040603" d="M 275.5,629.5 C 278.518,629.335 281.518,629.502 284.5,630C 287.319,634.758 286.653,639.092 282.5,643C 276.984,644.101 271.817,643.267 267,640.5C 266.244,638.191 266.744,636.191 268.5,634.5C 270.724,632.566 273.058,630.899 275.5,629.5 Z"/></g>
<g><path style="opacity:1" fill="#050604" d="M 479.5,629.5 C 485.224,628.832 490.557,629.832 495.5,632.5C 496.415,633.328 497.081,634.328 497.5,635.5C 494.286,639.869 489.952,642.369 484.5,643C 481.5,643.667 478.5,643.667 475.5,643C 473.777,642.225 472.777,640.892 472.5,639C 473.558,634.791 475.891,631.625 479.5,629.5 Z"/></g>
<g><path style="opacity:1" fill="#080b07" d="M 321.5,629.5 C 323.484,629.484 324.484,630.484 324.5,632.5C 324.298,634.923 323.131,636.589 321,637.5C 319.268,637.266 318.434,636.266 318.5,634.5C 319.092,632.577 320.092,630.911 321.5,629.5 Z"/></g>
<g><path style="opacity:1" fill="#060805" d="M 56.5,632.5 C 60.1625,633.266 63.8292,634.1 67.5,635C 68.7047,639.034 67.3714,642.034 63.5,644C 58.778,644.777 54.1113,644.61 49.5,643.5C 47.5558,637.048 49.8891,633.381 56.5,632.5 Z"/></g>
<g><path style="opacity:1" fill="#0a0d08" d="M 350.5,633.5 C 352.857,633.337 355.19,633.503 357.5,634C 358.921,638.298 357.254,640.965 352.5,642C 344.245,640.987 343.579,638.153 350.5,633.5 Z"/></g>
<g><path style="opacity:1" fill="#060905" d="M 438.5,633.5 C 443.936,632.387 447.936,634.22 450.5,639C 449.833,641 448.5,642.333 446.5,643C 443.5,643.667 440.5,643.667 437.5,643C 435.187,642.359 433.52,641.026 432.5,639C 433.759,636.236 435.759,634.403 438.5,633.5 Z"/></g>
<g><path style="opacity:1" fill="#0a0e08" d="M 380.5,633.5 C 386.442,632.907 387.942,635.241 385,640.5C 381.398,644.715 378.565,644.382 376.5,639.5C 377.432,637.235 378.765,635.235 380.5,633.5 Z"/></g>
</svg>
